<?xml version="1.0" standalone="no"?>
<!DOCTYPE svg PUBLIC "-//W3C//DTD SVG 20010904//EN"
 "http://www.w3.org/TR/2001/REC-SVG-20010904/DTD/svg10.dtd">
<svg version="1.0" xmlns="http://www.w3.org/2000/svg"
 width="400.000000pt" height="400.000000pt" viewBox="0 0 200.000000 200.000000"
 preserveAspectRatio="xMidYMid meet">

<g transform="translate(0.000000,200.000000) scale(0.100000,-0.100000)"
fill="#000000" stroke="none">
<path d="M575 1588 c-9 -13 -65 -98 -125 -190 -61 -92 -138 -198 -173 -235
-69 -73 -92 -108 -82 -123 3 -6 36 -10 73 -10 44 0 81 -7 109 -19 38 -18 42
-23 49 -67 4 -26 4 -90 0 -143 -6 -85 -10 -99 -33 -123 -15 -15 -25 -29 -22
-31 2 -2 38 -11 79 -22 41 -10 92 -26 113 -37 39 -20 44 -36 38 -130 -3 -49
25 -78 77 -78 51 0 62 14 62 77 0 62 6 64 85 34 45 -17 53 -18 99 -4 28 8 109
44 180 80 l130 65 -27 15 c-19 9 -26 20 -23 31 3 9 12 77 21 150 8 74 18 138
21 143 3 5 17 9 32 9 40 0 104 20 125 38 24 22 21 38 -14 75 -49 50 -79 100
-165 266 -43 84 -95 172 -114 194 -35 39 -37 40 -125 48 -50 4 -154 8 -232 8
-136 1 -143 0 -158 -21z m289 -21 l168 -2 27 -32 c14 -17 60 -96 101 -175 41
-78 97 -179 123 -223 44 -73 47 -81 31 -92 -10 -7 -31 -13 -47 -13 -24 0 -28
3 -22 18 4 9 8 22 8 27 0 19 -227 447 -240 452 -33 13 -105 -91 -208 -297 -78
-156 -104 -195 -140 -204 -21 -5 -339 65 -352 78 -6 6 14 36 128 196 52 74
108 158 124 185 56 99 52 96 93 89 20 -3 113 -6 206 -7z m147 -175 c18 -57 56
-128 121 -230 l60 -92 -20 -163 c-11 -89 -25 -174 -31 -189 -14 -38 -149 -127
-225 -149 -49 -14 -74 -2 -88 42 -20 69 -58 78 -58 13 0 -41 -6 -42 -110 -13
-84 23 -154 60 -170 89 -5 10 -10 77 -10 149 l0 131 25 6 c14 3 64 -3 111 -14
48 -11 92 -18 100 -15 7 2 18 21 25 41 32 99 175 370 221 419 25 27 33 23 49
-25z"/>
<path d="M969 959 c-40 -15 -53 -49 -46 -121 8 -90 53 -115 116 -63 50 43 66
142 27 174 -19 16 -68 21 -97 10z"/>
<path d="M1651 1107 c-75 -38 -126 -94 -145 -161 -16 -53 -19 -57 -39 -51 -56
19 -114 17 -158 -5 l-43 -22 32 -13 c17 -8 42 -31 56 -52 30 -45 56 -62 148
-97 37 -13 78 -32 92 -41 33 -22 33 -11 0 37 -31 44 -44 129 -24 153 7 8 30
18 51 21 40 7 52 27 23 38 -12 5 -6 13 27 38 57 44 60 58 13 58 -34 0 -36 1
-22 18 26 29 50 84 41 93 -4 4 -28 -2 -52 -14z"/>
</g>
</svg>
